<?xml version="1.0" standalone="no"?>
<!DOCTYPE svg PUBLIC "-//W3C//DTD SVG 20010904//EN"
 "http://www.w3.org/TR/2001/REC-SVG-20010904/DTD/svg10.dtd">
<svg version="1.0" xmlns="http://www.w3.org/2000/svg"
 width="1333.000000pt" height="1333.000000pt" viewBox="0 0 1333.000000 1333.000000"
 preserveAspectRatio="xMidYMid meet">

<g transform="translate(0.000000,1333.000000) scale(0.100000,-0.100000)"
fill="#000000" stroke="none">
<path d="M6335 10924 c-133 -11 -387 -48 -540 -79 -1166 -234 -2199 -964
-2819 -1990 -310 -513 -505 -1088 -582 -1715 -26 -206 -26 -733 -1 -945 62
-519 196 -969 422 -1424 340 -680 854 -1258 1491 -1674 551 -360 1139 -575
1827 -669 143 -20 205 -23 532 -23 413 0 529 11 870 80 1146 230 2160 935
2787 1939 104 166 269 490 338 666 140 358 230 717 277 1105 25 209 25 728 0
935 -63 529 -198 984 -431 1445 -207 409 -439 734 -761 1064 -600 616 -1363
1033 -2205 1206 -307 63 -456 77 -825 80 -181 1 -352 1 -380 -1z m438 -1115
c25 -31 18 -60 -21 -84 -27 -17 -32 -24 -27 -49 3 -16 5 -77 5 -136 l0 -107
193 -7 c193 -7 237 -16 237 -49 0 -7 -41 -118 -90 -247 -63 -163 -99 -242
-116 -257 -22 -20 -36 -23 -114 -23 l-90 0 7 -77 c3 -43 6 -79 7 -80 1 0 125
-13 276 -27 151 -14 303 -29 338 -32 59 -6 62 -7 62 -34 0 -27 -1 -27 -52 -22
l-53 5 50 -44 c104 -91 180 -167 253 -254 366 -435 474 -929 328 -1497 -51
-198 -52 -199 -60 -83 -8 121 -32 301 -51 376 l-13 54 -1 -117 c-4 -428 -153
-886 -417 -1278 -101 -150 -82 -142 -161 -78 -122 98 -305 210 -382 233 l-24
7 7 -263 c4 -145 9 -281 12 -302 l6 -38 296 3 297 3 83 42 c45 24 169 98 275
166 199 128 318 202 375 231 l32 17 0 143 0 143 53 11 c28 7 77 15 108 18 l56
6 6 -102 c4 -57 8 -104 10 -106 2 -2 43 12 93 32 240 94 543 163 855 194 170
17 177 14 93 -40 -275 -177 -554 -477 -949 -1021 -193 -266 -305 -409 -383
-491 l-53 -56 63 5 c361 28 702 71 858 108 52 13 96 22 98 20 7 -6 -87 -75
-148 -108 -127 -69 -361 -136 -595 -171 -364 -55 -669 -66 -1800 -66 -944 0
-1168 -6 -1444 -36 -302 -32 -525 -95 -638 -181 l-33 -24 0 34 c0 98 74 197
184 247 132 60 217 70 696 80 606 14 637 16 288 18 -254 2 -326 5 -423 22
-602 103 -1015 556 -1100 1207 -8 63 -15 141 -15 174 l0 59 638 0 639 0 6
-107 c14 -232 68 -347 192 -410 105 -54 120 -56 561 -60 l411 -5 7 219 c3 120
9 273 12 340 l6 121 -68 7 c-101 11 -327 -2 -424 -24 -47 -11 -129 -35 -183
-54 l-98 -36 -14 32 -14 32 -7 -43 c-5 -33 -13 -46 -35 -58 -16 -8 -29 -13
-29 -12 0 2 25 77 56 168 122 362 210 708 259 1015 14 88 29 178 33 200 l8 40
26 -80 c45 -135 52 -189 52 -379 1 -187 4 -187 32 4 21 139 24 459 5 600 -29
214 -89 442 -203 760 -33 91 -37 126 -24 205 l8 50 -31 -29 c-35 -34 -30 -38
-100 66 -54 79 -192 220 -249 253 -42 25 -41 35 4 35 19 0 33 4 30 9 -3 4 -51
12 -107 16 l-101 7 7 26 c4 15 7 28 8 28 1 1 90 -7 197 -17 499 -48 1034 -98
1036 -96 1 1 4 35 7 75 l6 72 -74 0 c-88 0 -119 12 -139 54 -39 83 -176 471
-171 486 10 33 51 40 224 40 199 0 181 -16 180 160 l0 115 -32 20 c-44 28 -48
65 -10 95 34 27 89 22 116 -11z m-1261 -1747 c354 -618 378 -1147 74 -1599
l-49 -73 -610 0 -610 0 24 29 c417 516 684 930 962 1493 73 146 134 267 137
267 3 1 35 -52 72 -117z m3303 -3742 c-75 -77 -240 -144 -430 -174 -192 -30
-412 -37 -935 -30 -519 6 -683 1 -858 -32 -113 -20 -212 -59 -261 -101 l-41
-35 0 34 c0 18 11 56 24 85 28 58 75 95 153 119 51 17 64 17 828 34 495 12
750 23 1005 46 194 17 433 55 495 78 60 22 62 19 20 -24z"/>
<path d="M6952 7970 c-100 -21 -185 -90 -228 -185 -67 -146 -24 -270 120 -345
50 -26 71 -44 81 -67 17 -41 35 -45 151 -38 101 5 134 19 134 55 0 10 19 26
51 40 60 28 112 83 129 135 18 54 7 145 -25 210 -33 69 -119 147 -188 173 -63
24 -167 34 -225 22z m3 -184 c80 -34 89 -173 14 -212 -41 -21 -74 -17 -108 11
-66 57 -61 162 11 202 30 16 42 16 83 -1z m318 -47 c48 -52 31 -153 -32 -178
-62 -26 -130 48 -117 129 3 22 17 45 37 63 38 35 71 31 112 -14z m-167 -225
c13 -49 -25 -73 -60 -38 -13 12 -14 20 -4 37 22 43 54 43 64 1z"/>
<path d="M7316 7395 c-8 -8 -17 -24 -21 -34 -4 -13 -43 -35 -112 -66 l-106
-46 -111 34 c-97 30 -114 38 -134 68 -29 43 -53 52 -82 32 -18 -12 -21 -22
-17 -48 4 -27 1 -34 -19 -44 -15 -7 -24 -19 -24 -34 0 -45 34 -58 94 -36 25 9
43 7 96 -8 l65 -20 -59 -27 c-51 -23 -68 -26 -117 -20 -51 6 -58 4 -68 -14
-17 -32 -13 -51 13 -64 21 -9 24 -16 19 -39 -7 -35 11 -59 43 -59 17 0 31 12
49 41 22 33 42 48 120 84 133 61 126 61 237 29 83 -24 102 -33 114 -55 18 -36
40 -43 64 -19 22 22 24 29 11 50 -7 10 -4 18 10 28 21 14 26 57 8 68 -6 3 -28
1 -49 -6 -31 -10 -47 -10 -84 1 -25 7 -46 16 -46 20 0 15 89 44 135 44 49 0
50 1 53 32 2 24 -1 33 -17 38 -17 5 -19 10 -11 25 13 24 13 26 -6 44 -19 20
-29 20 -48 1z"/>
<path d="M6142 6580 c0 -14 2 -19 5 -12 2 6 2 18 0 25 -3 6 -5 1 -5 -13z"/>
</g>
</svg>
